<svg version="1.2" xmlns="http://www.w3.org/2000/svg" viewBox="0 0 1520 1520">
  <path fill-rule="evenodd" d="M760 1520C339.7 1520 0 1180.3 0 760S339.7 0 760 0s760 339.7 760 760-339.7 760-760 760zm699.2-760c0-386.7-312.5-699.2-699.2-699.2C373.3 60.8 60.8 373.3 60.8 760c0 386.7 312.5 699.2 699.2 699.2 386.7 0 699.2-312.5 699.2-699.2zm-676.4 22.8h334.4v60.8H980.4v273.6h-60.8V843.6H782.8zm-38 35.4L613 950l131.8 131.8-43 43L570 993l-131.8 131.8-43-43L527 950 395.2 818.2l43-43L570 907l131.8-131.8zm30.4-252c0-94.4 76.5-171 171-171 60.2 0 113 31.1 143.5 78.1L897.8 665.2c14.6 7.2 31 11.2 48.4 11.2 60.9 0 110.2-49.3 110.2-110.2h60.8c0 94.4-76.6 171-171 171-94.5 0-171-76.6-171-171zm60.8 0c0 21.4 6.1 41.3 16.6 58.2l151.8-151.8c-16.9-10.5-36.8-16.6-58.2-16.6-60.9 0-110.2 49.3-110.2 110.2zm-137.8-171 46.6 39.1-144.4 172.1v130.8h-60.8V606.4L395.2 434.3l46.6-39.1L570 548z"/>
</svg>